<svg id="Layer_1" data-name="Layer 1" xmlns="http://www.w3.org/2000/svg" viewBox="0 0 155.87 145.38"><defs><style>.cls-1{fill:#202a44;}.cls-2{fill:#eed484;}</style></defs><title>Kryptr-logo-RGB</title><path class="cls-1" d="M45.38,136.63h7.33v15l12.85-15h8.59L59.74,153.06l15.32,19h-9.3L52.71,155.75V172H45.38Z" transform="translate(-45.38 -36.26)"/><path class="cls-1" d="M79.66,148.51h6v3.8c1.62-2.73,4.19-4.4,6.67-4.4a6.39,6.39,0,0,1,2.63.5l-.86,6.32a13.5,13.5,0,0,0-3.24-.4,8.47,8.47,0,0,0-4.19,1.16V172h-7Z" transform="translate(-45.38 -36.26)"/><path class="cls-1" d="M126.27,148.51l-15.06,33.12h-6.68l-.1-.45,5.41-11.33L99.43,148.51h7.78l6.32,13.76,6-13.76Z" transform="translate(-45.38 -36.26)"/><path class="cls-1" d="M138.76,171.87v9.76h-7V148.51h6v2.79a10.62,10.62,0,0,1,7.79-3.39c6.67,0,10.92,5.31,10.92,12.13,0,7.44-5.46,12.59-12.74,12.59A15.32,15.32,0,0,1,138.76,171.87Zm0-16.63v11.63a11,11,0,0,0,4,.76c3.89,0,6.57-2.58,6.57-7.49,0-4.45-2.43-7-5.77-7A7.46,7.46,0,0,0,138.76,155.24Z" transform="translate(-45.38 -36.26)"/><path class="cls-1" d="M165,148.51v-8.74h7v8.74h6.17v5H172v10.42a3,3,0,0,0,3.33,3.28,5.68,5.68,0,0,0,2.84-.66h.45v5.26a15.91,15.91,0,0,1-4.7.66c-5,0-8.95-2.68-8.95-8.7V153.47h-3.79v-5Z" transform="translate(-45.38 -36.26)"/><path class="cls-1" d="M185.93,148.51h6v3.8c1.61-2.73,4.19-4.4,6.67-4.4a6.44,6.44,0,0,1,2.63.5l-.86,6.32a13.5,13.5,0,0,0-3.24-.4,8.47,8.47,0,0,0-4.19,1.16V172h-7Z" transform="translate(-45.38 -36.26)"/><path class="cls-1" d="M78.32,81.26A44.88,44.88,0,0,0,94,115.38L98.38,111a38.77,38.77,0,0,1-1-58.62L93,48A44.9,44.9,0,0,0,78.32,81.26Z" transform="translate(-45.38 -36.26)"/><path class="cls-1" d="M153,47.45l-4.39,4.39a38.76,38.76,0,0,1-.57,59.33l4.38,4.38a45,45,0,0,0,.58-68.1Z" transform="translate(-45.38 -36.26)"/><path class="cls-1" d="M123.32,36.26A44.78,44.78,0,0,0,97.79,44.2l4.46,4.46a38.74,38.74,0,0,1,41.44-.44l4.47-4.48A44.73,44.73,0,0,0,123.32,36.26Z" transform="translate(-45.38 -36.26)"/><path class="cls-1" d="M143,114.7a38.78,38.78,0,0,1-39.65-.14L98.89,119a44.93,44.93,0,0,0,48.62.15Z" transform="translate(-45.38 -36.26)"/><path class="cls-1" d="M123.32,47.89a33.37,33.37,0,1,0,33.36,33.37A33.37,33.37,0,0,0,123.32,47.89Zm10,52.33,0,0a21.93,21.93,0,1,1,9-9.13l3.23,12.56Z" transform="translate(-45.38 -36.26)"/><path class="cls-2" d="M130.28,78.35h-.17V74.44s.26-6.12-7.13-6.12-7.13,6.12-7.13,6.12v3.91h-.18a2.46,2.46,0,0,0-2.46,2.46V91.12a2.46,2.46,0,0,0,2.46,2.46h14.61a2.46,2.46,0,0,0,2.46-2.46V80.81A2.46,2.46,0,0,0,130.28,78.35Zm-5.71,11.94h-3.32l.68-4.19a2,2,0,1,1,1.84.14Zm2.61-14.83v2.89h-8.4V75.46s-.15-4.53,4.2-4.53S127.18,75.46,127.18,75.46Z" transform="translate(-45.38 -36.26)"/></svg>