<?xml version="1.0" encoding="utf-8"?><svg viewBox="0 0 155.87 145.38" xmlns="http://www.w3.org/2000/svg" xmlns:xlink="http://www.w3.org/1999/xlink"><style>:root>svg{display:none}:root>svg:target{display:block}</style><svg id="logo" data-name="Layer 1" viewBox="0 0 155.87 145.38" xmlns="http://www.w3.org/2000/svg"><defs><style>.acls-1{fill:#202a44}</style></defs><path class="acls-1" d="M45.38 136.63h7.33v15l12.85-15h8.59l-14.41 16.43 15.32 19h-9.3l-13.05-16.31V172h-7.33zm34.28 11.88h6v3.8c1.62-2.73 4.19-4.4 6.67-4.4a6.39 6.39 0 012.63.5l-.86 6.32a13.5 13.5 0 00-3.24-.4 8.47 8.47 0 00-4.19 1.16V172h-7zm46.61 0l-15.06 33.12h-6.68l-.1-.45 5.41-11.33-10.41-21.34h7.78l6.32 13.76 6-13.76zm12.49 23.36v9.76h-7v-33.12h6v2.79a10.62 10.62 0 017.79-3.39c6.67 0 10.92 5.31 10.92 12.13 0 7.44-5.46 12.59-12.74 12.59a15.32 15.32 0 01-4.97-.76zm0-16.63v11.63a11 11 0 004 .76c3.89 0 6.57-2.58 6.57-7.49 0-4.45-2.43-7-5.77-7a7.46 7.46 0 00-4.8 2.1zm26.24-6.73v-8.74h7v8.74h6.17v5H172v10.42a3 3 0 003.33 3.28 5.68 5.68 0 002.84-.66h.45v5.26a15.91 15.91 0 01-4.7.66c-5 0-8.95-2.68-8.95-8.7v-10.3h-3.79v-5zm20.93 0h6v3.8c1.61-2.73 4.19-4.4 6.67-4.4a6.44 6.44 0 012.63.5l-.86 6.32a13.5 13.5 0 00-3.24-.4 8.47 8.47 0 00-4.19 1.16V172h-7zM78.32 81.26A44.88 44.88 0 0094 115.38l4.38-4.38a38.77 38.77 0 01-1-58.62L93 48a44.9 44.9 0 00-14.68 33.26zM153 47.45l-4.39 4.39a38.76 38.76 0 01-.57 59.33l4.38 4.38a45 45 0 00.58-68.1zm-29.68-11.19a44.78 44.78 0 00-25.53 7.94l4.46 4.46a38.74 38.74 0 0141.44-.44l4.47-4.48a44.73 44.73 0 00-24.84-7.48zM143 114.7a38.78 38.78 0 01-39.65-.14L98.89 119a44.93 44.93 0 0048.62.15z" transform="translate(-45.38 -36.26)"/><path class="acls-1" d="M123.32 47.89a33.37 33.37 0 1033.36 33.37 33.37 33.37 0 00-33.36-33.37zm10 52.33a21.93 21.93 0 119-9.13l3.23 12.56z" transform="translate(-45.38 -36.26)"/><path d="M130.28 78.35h-.17v-3.91s.26-6.12-7.13-6.12-7.13 6.12-7.13 6.12v3.91h-.18a2.46 2.46 0 00-2.46 2.46v10.31a2.46 2.46 0 002.46 2.46h14.61a2.46 2.46 0 002.46-2.46V80.81a2.46 2.46 0 00-2.46-2.46zm-5.71 11.94h-3.32l.68-4.19a2 2 0 111.84.14zm2.61-14.83v2.89h-8.4v-2.89s-.15-4.53 4.2-4.53 4.2 4.53 4.2 4.53z" transform="translate(-45.38 -36.26)"/></svg></svg>